<?xml version="1.0" encoding="UTF-8" standalone="no"?>
<!-- Created with Inkscape (http://www.inkscape.org/) -->

<svg
   xmlns:dc="http://purl.org/dc/elements/1.1/"
   xmlns:cc="http://creativecommons.org/ns#"
   xmlns:rdf="http://www.w3.org/1999/02/22-rdf-syntax-ns#"
   xmlns:svg="http://www.w3.org/2000/svg"
   xmlns="http://www.w3.org/2000/svg"
   xmlns:xlink="http://www.w3.org/1999/xlink"
   xmlns:sodipodi="http://sodipodi.sourceforge.net/DTD/sodipodi-0.dtd"
   xmlns:inkscape="http://www.inkscape.org/namespaces/inkscape"
   width="744.09448819"
   height="1052.3622047"
   id="svg13265"
   version="1.1"
   inkscape:version="0.48.2 r9819"
   sodipodi:docname="icon_notification.svg"
   inkscape:export-filename="/Users/guilhem/icons2_xx.png"
   inkscape:export-xdpi="270"
   inkscape:export-ydpi="270">
  <defs
     id="defs13267">
    <linearGradient
       inkscape:collect="always"
       id="linearGradient17820">
      <stop
         style="stop-color:#000000;stop-opacity:1;"
         offset="0"
         id="stop17822" />
      <stop
         style="stop-color:#000000;stop-opacity:0;"
         offset="1"
         id="stop17824" />
    </linearGradient>
    <clipPath
       id="SVGID_105_">
      <rect
         height="96"
         width="96"
         y="1659.947"
         x="491.47699"
         id="use12647" />
    </clipPath>
    <clipPath
       id="clipPath13227">
      <rect
         height="96"
         width="96"
         y="1659.947"
         x="491.47699"
         id="use13229" />
    </clipPath>
    <clipPath
       id="SVGID_25_">
      <use
         xlink:href="#SVGID_24_"
         overflow="visible"
         id="use12109"
         style="overflow:visible"
         x="0"
         y="0"
         width="595.28003"
         height="841.89001" />
    </clipPath>
    <clipPath
       id="clipPath13233">
      <use
         xlink:href="#SVGID_24_"
         overflow="visible"
         id="use13235"
         style="overflow:visible"
         x="0"
         y="0"
         width="595.28003"
         height="841.89001" />
    </clipPath>
    <clipPath
       id="clipPath13237">
      <use
         xlink:href="#SVGID_24_"
         overflow="visible"
         id="use13239"
         style="overflow:visible"
         x="0"
         y="0"
         width="595.28003"
         height="841.89001" />
    </clipPath>
    <clipPath
       id="clipPath13241">
      <use
         xlink:href="#SVGID_24_"
         overflow="visible"
         id="use13243"
         style="overflow:visible"
         x="0"
         y="0"
         width="595.28003"
         height="841.89001" />
    </clipPath>
    <defs
       id="defs12105">
      <rect
         height="96"
         width="96"
         y="3571.5149"
         x="132.89799"
         id="SVGID_24_" />
    </defs>
    <clipPath
       id="clipPath13248">
      <use
         height="841.89001"
         width="595.28003"
         y="0"
         x="0"
         style="overflow:visible"
         id="use13250"
         overflow="visible"
         xlink:href="#SVGID_24_" />
    </clipPath>
    <clipPath
       id="SVGID_25_-3">
      <use
         xlink:href="#SVGID_24_"
         overflow="visible"
         id="use12109-8"
         style="overflow:visible"
         x="0"
         y="0"
         width="595.28003"
         height="841.89001" />
    </clipPath>
    <clipPath
       id="clipPath13357">
      <use
         xlink:href="#SVGID_24_"
         overflow="visible"
         id="use13359"
         style="overflow:visible"
         x="0"
         y="0"
         width="595.28003"
         height="841.89001" />
    </clipPath>
    <clipPath
       id="clipPath13361">
      <use
         xlink:href="#SVGID_24_"
         overflow="visible"
         id="use13363"
         style="overflow:visible"
         x="0"
         y="0"
         width="595.28003"
         height="841.89001" />
    </clipPath>
    <clipPath
       id="SVGID_105_-5">
      <use
         xlink:href="#SVGID_104_"
         overflow="visible"
         id="use12647-1"
         style="overflow:visible"
         x="0"
         y="0"
         width="595.28003"
         height="841.89001" />
    </clipPath>
    <clipPath
       id="clipPath13403">
      <use
         xlink:href="#SVGID_104_"
         overflow="visible"
         id="use13405"
         style="overflow:visible"
         x="0"
         y="0"
         width="595.28003"
         height="841.89001" />
    </clipPath>
    <clipPath
       id="SVGID_25_-1">
      <use
         xlink:href="#SVGID_24_"
         overflow="visible"
         id="use12109-7"
         style="overflow:visible"
         x="0"
         y="0"
         width="595.28003"
         height="841.89001" />
    </clipPath>
    <filter
       id="filter13620"
       inkscape:label="Drop shadow"
       width="1.5"
       height="1.5"
       x="-.25"
       y="-.25">
      <feGaussianBlur
         id="feGaussianBlur13622"
         in="SourceAlpha"
         stdDeviation="2"
         result="blur" />
      <feColorMatrix
         id="feColorMatrix13624"
         result="bluralpha"
         type="matrix"
         values="1 0 0 0 0 0 1 0 0 0 0 0 1 0 0 0 0 0 0.5 0 " />
      <feOffset
         id="feOffset13626"
         in="bluralpha"
         dx="4"
         dy="4"
         result="offsetBlur" />
      <feMerge
         id="feMerge13628">
        <feMergeNode
           id="feMergeNode13630"
           in="offsetBlur" />
        <feMergeNode
           id="feMergeNode13632"
           in="SourceGraphic" />
      </feMerge>
    </filter>
    <filter
       id="filter13634"
       inkscape:label="Drop shadow"
       width="1.5"
       height="1.5"
       x="-.25"
       y="-.25">
      <feGaussianBlur
         id="feGaussianBlur13636"
         in="SourceAlpha"
         stdDeviation="2"
         result="blur" />
      <feColorMatrix
         id="feColorMatrix13638"
         result="bluralpha"
         type="matrix"
         values="1 0 0 0 0 0 1 0 0 0 0 0 1 0 0 0 0 0 0.5 0 " />
      <feOffset
         id="feOffset13640"
         in="bluralpha"
         dx="4"
         dy="4"
         result="offsetBlur" />
      <feMerge
         id="feMerge13642">
        <feMergeNode
           id="feMergeNode13644"
           in="offsetBlur" />
        <feMergeNode
           id="feMergeNode13646"
           in="SourceGraphic" />
      </feMerge>
    </filter>
    <filter
       id="filter13648"
       inkscape:label="Drop shadow"
       width="1.5"
       height="1.5"
       x="-.25"
       y="-.25">
      <feGaussianBlur
         id="feGaussianBlur13650"
         in="SourceAlpha"
         stdDeviation="2"
         result="blur" />
      <feColorMatrix
         id="feColorMatrix13652"
         result="bluralpha"
         type="matrix"
         values="1 0 0 0 0 0 1 0 0 0 0 0 1 0 0 0 0 0 0.5 0 " />
      <feOffset
         id="feOffset13654"
         in="bluralpha"
         dx="4"
         dy="4"
         result="offsetBlur" />
      <feMerge
         id="feMerge13656">
        <feMergeNode
           id="feMergeNode13658"
           in="offsetBlur" />
        <feMergeNode
           id="feMergeNode13660"
           in="SourceGraphic" />
      </feMerge>
    </filter>
    <radialGradient
       inkscape:collect="always"
       xlink:href="#linearGradient17820"
       id="radialGradient17826"
       cx="140.64285"
       cy="-149.85211"
       fx="140.64285"
       fy="-149.85211"
       r="256"
       gradientUnits="userSpaceOnUse"
       gradientTransform="translate(-60,74.285714)" />
  </defs>
  <sodipodi:namedview
     id="base"
     pagecolor="#ffffff"
     bordercolor="#666666"
     borderopacity="1.0"
     inkscape:pageopacity="0.0"
     inkscape:pageshadow="2"
     inkscape:zoom="7.010105"
     inkscape:cx="290.76134"
     inkscape:cy="883.30959"
     inkscape:document-units="px"
     inkscape:current-layer="layer2"
     showgrid="false"
     showborder="false"
     inkscape:window-width="1424"
     inkscape:window-height="843"
     inkscape:window-x="8"
     inkscape:window-y="0"
     inkscape:window-maximized="0" />
  <metadata
     id="metadata13270">
    <rdf:RDF>
      <cc:Work
         rdf:about="">
        <dc:format>image/svg+xml</dc:format>
        <dc:type
           rdf:resource="http://purl.org/dc/dcmitype/StillImage" />
        <dc:title></dc:title>
      </cc:Work>
    </rdf:RDF>
  </metadata>
  <g
     inkscape:groupmode="layer"
     id="layer5"
     inkscape:label="back" />
  <g
     inkscape:label="Layer 1"
     inkscape:groupmode="layer"
     id="layer1"
     style="display:inline" />
  <g
     inkscape:groupmode="layer"
     id="layer4"
     inkscape:label="Watch"
     style="display:inline" />
  <g
     inkscape:groupmode="layer"
     id="layer3"
     inkscape:label="World"
     style="display:inline" />
  <g
     inkscape:groupmode="layer"
     id="layer2"
     inkscape:label="Alarm"
     style="display:inline">
    <rect
       style="fill:none;stroke:none;stroke-width:0.10000000000000001;stroke-miterlimit:4;stroke-opacity:1;stroke-dasharray:none"
       id="rect18435"
       width="24"
       height="24"
       x="299.6235"
       y="162.94066"
       inkscape:export-filename="/Users/guilhem/Documents/android_workspace/GeoAlarm/res/drawable-xxhdpi/ic_notification.png"
       inkscape:export-xdpi="270"
       inkscape:export-ydpi="270" />
    <g
       id="g13484"
       style="fill:#ffffff;fill-opacity:1;stroke:none;display:inline"
       transform="matrix(0.32440582,0,0,0.34359136,196.20887,112.33958)">
      <path
         transform="translate(174.81679,-3437.1513)"
         clip-path="url(#SVGID_25_-3)"
         d="m 196.072,3588.938 -1.584,4.431 c 7.375,3.419 13.24,9.522 16.313,17.075 l 4.406,-1.576 c -3.555,-8.868 -10.447,-16.024 -19.135,-19.93"
         id="path12115"
         inkscape:connector-curvature="0"
         style="fill:#ffffff;fill-opacity:1;stroke:none" />
      <path
         transform="translate(174.81679,-3437.1513)"
         clip-path="url(#SVGID_25_-3)"
         d="m 167.486,3593.368 -1.586,-4.431 c -8.846,3.978 -15.817,11.327 -19.312,20.423 l 4.401,1.574 c 3.023,-7.777 8.962,-14.078 16.497,-17.566"
         id="path12117"
         inkscape:connector-curvature="0"
         style="fill:#ffffff;fill-opacity:1;stroke:none" />
    </g>
    <g
       style="fill:#ffffff;fill-opacity:1;stroke:none;display:inline"
       id="g12641"
       transform="matrix(0.22440865,0,0,0.2376803,190.54168,-229.96601)">
      <defs
         id="defs12643">
        <rect
           id="SVGID_104_"
           x="491.47699"
           y="1659.947"
           width="96"
           height="96" />
      </defs>
      <clipPath
         id="clipPath13259">
        <use
           xlink:href="#SVGID_104_"
           overflow="visible"
           id="use13261"
           style="overflow:visible"
           x="0"
           y="0"
           width="595.28003"
           height="841.89001" />
      </clipPath>
      <path
         clip-path="url(#SVGID_105_-5)"
         d="m 539.479,1670.871 c -20.476,0 -37.08,16.599 -37.08,37.076 0,20.479 16.604,37.076 37.08,37.076 20.476,0 37.073,-16.598 37.073,-37.076 10e-4,-20.477 -16.597,-37.076 -37.073,-37.076 m 12.357,25.474 -0.086,1.047 -1.518,0.353 -0.641,-1.619 -0.012,-3.152 2.257,3.371 z m -0.285,-8.162 -0.949,0.739 -1.479,-0.143 -0.121,-0.301 0.047,-1.363 1.096,0.242 1.148,-0.257 0.539,0.216 -0.281,0.867 z m -20.287,-11.64 0.664,-0.873 c 1.107,-0.254 2.232,-0.457 3.382,-0.602 l -3.599,2.355 -1.858,0.072 1.411,-0.952 z m -3.655,0.69 0.696,0.138 2.415,1.371 0.58,0.088 -0.967,0.929 -1.564,-0.212 -1.221,-0.969 0.061,-1.345 z m -1.431,0.314 0.145,0.211 -0.404,0.492 -0.736,0.315 -0.678,0.041 -0.133,-0.177 c 0.598,-0.302 1.19,-0.619 1.806,-0.882 m -3.576,4.236 1.25,-1.377 0.484,0.25 -0.182,0.896 -0.65,0.765 -0.906,-0.133 0.004,-0.401 z m -6.526,2.715 0.98,-0.681 -0.18,-0.18 c 1.024,-0.946 2.103,-1.841 3.242,-2.651 l 0.162,0.059 1.618,-0.314 -0.047,1.809 -1.871,2.014 -2.396,1.105 -1.631,-0.933 0.123,-0.228 z m -9.275,27.035 -0.674,-1.506 c -0.006,-0.111 -0.018,-0.223 -0.018,-0.334 l 0.717,1.23 -0.025,0.61 z m 30.816,20.774 -3.656,2.697 -4.113,5.268 c -2.38,-0.717 -4.631,-1.709 -6.752,-2.908 l -0.118,-4.215 -3.929,-7.602 0.06,-1.482 1.13,-2.705 -0.025,-1.818 -1.239,-1.371 -9.067,-3.998 -3.011,-5.117 -0.827,-0.305 -0.015,0.053 c -0.002,-0.111 -0.019,-0.217 -0.019,-0.322 -0.066,-8.88 3.362,-16.956 8.967,-22.986 l 1.031,0.573 5.698,-1.172 0.675,-0.392 0.15,0.31 -0.405,0.763 -0.075,0.334 3.959,-5.519 0.287,-0.108 0.26,0 0.229,0.096 0.205,0.199 -2.492,4.643 0.956,0.9 1.349,-0.924 0.299,-4.164 1.705,-0.537 -0.814,1.336 2.527,-1.432 0.879,0.203 0.088,0.42 -1.609,0.287 3.037,2.587 1.18,2.024 -1.529,1.679 0.246,0.282 -1.112,1.762 -0.269,-0.018 -0.57,0.306 -2.62,-1.647 2.631,-2.148 -0.392,-0.869 -2.504,-1.582 -0.806,2.268 -5.43,4.211 -1.778,2.67 1.508,1.718 2.444,1.125 1.03,0.924 2.136,-5.466 0.825,-0.795 3.664,1.767 0.42,-0.058 3.009,7.271 -0.903,0.343 -1.119,-0.058 -0.363,-0.483 0.504,-0.355 0.283,-0.37 0.062,-0.386 -0.163,-0.409 -4.591,1.301 1.808,1.334 1.014,0.13 -6.982,3.889 -3.164,4.604 0.022,2.422 -1.168,-0.277 -0.554,-1.586 -3.773,-0.703 -1.514,0.842 -1.272,1.729 -0.25,0.936 0.142,1.141 0.727,0.779 2.023,-0.973 0.647,0.076 2.466,4.16 8.12,0.275 3.457,1.313 2.808,3.676 4.791,1.422 1.672,1.238 -2.138,6.976 z m -11.281,-43.28 -0.438,0.276 -1.392,-0.01 -0.205,-0.217 1.138,-1.43 0.308,0.075 0.308,0.444 0.281,0.859 z m 12.432,0.932 -0.764,-2.188 0.289,-2.072 1.201,-2.82 -0.701,-4.684 -2.422,-0.314 -0.345,-0.627 0.175,-0.852 0.887,-1.275 0.436,-0.235 c 0.57,-0.036 1.131,-0.095 1.706,-0.101 4.374,-0.03 8.538,0.802 12.374,2.295 l -2.211,5.923 -9.424,8.151 -1.201,-1.201 z m 32.939,27.121 c -2.053,7.486 -6.629,13.924 -12.779,18.332 l -4.518,-15.146 -2.373,-0.678 -5.262,0.018 -3.184,-1.877 0.18,-3.727 4.273,-8.401 -0.209,-1.756 0.217,-1.437 2.789,-1.108 -0.176,-0.789 -0.521,-0.872 -0.047,-0.614 6.451,-4.755 v -0.91 l -2.297,-1.764 -0.229,-0.862 4.885,-6.629 1.861,-0.799 1.021,0.065 c 1.215,1.092 2.373,2.246 3.416,3.5 l -0.445,0.135 1.211,1.242 0.211,-0.088 c 2.844,3.774 4.932,8.156 5.969,12.941 l -0.064,0.245 0.18,0.362 c 0.4,2.029 0.635,4.129 0.656,6.279 0.02,3.027 -0.396,5.955 -1.129,8.748 l -0.258,0.16 0.171,0.185 z"
         id="path12649"
         inkscape:connector-curvature="0"
         style="fill:#ffffff;fill-opacity:1;stroke:none" />
      <polygon
         clip-path="url(#SVGID_105_-5)"
         points="554.199,1702.156 549.58,1705.586 555.641,1705.363 558.381,1707.848 559.686,1708.305 566.959,1706.845 567.041,1705.404 562.035,1704.044 561.531,1703.432 561.631,1704.888 561.502,1705.001 557.582,1700.908 557.576,1700.938 556.947,1701.091 556.842,1700.939 557.031,1701.729 558.576,1702.859 558.693,1703.686 558.391,1704.193 558.168,1704.357 557.887,1704.46 556.414,1702.143 "
         id="polygon12651"
         style="fill:#ffffff;fill-opacity:1;stroke:none" />
    </g>
  </g>
</svg>
